:SAMPLES-PER-SECOND 30
:FULLY-SPECIFIED
:DEGREES
353
root  -5.35936 39.1973 -3.19033 2.23283 -70.7191 -6.99976
RightUpLeg  -13.3391 -27.9006 3.82907
RightLeg  27.1166 -6.18397 -2.80011
RightFoot  -10.5067 -0.0179274 -7.17556
RightToes  0.00048216 0.542163 -0.142577
Spine  19.345 4.47966 22.5281
Spine1  10.2989 13.1034 -14.0006
HEad  13.7484 -18.5182 2.52671
LeftShoulder1  9.4642 -14.3672 -46.1924
LeftArm  -21.965 29.6066 -21.8653
LeftForeArm  -10.4951 -49.3438 -13.8259
LeftHand  -0.25398 0.0180481 5.50724
RightShoulder  6.77874 12.9993 35.1001
RightArm  56.2052 29.4468 69.6368
RightForeArm  -41.071 28.8751 8.03252
RightHand  -0.627579 -1.06943 -16.6754
LeftUpLeg  -17.3856 -2.08301 12.5316
LeftLeg  56.1393 0.0158856 0.587405
LeftFoot  8.13996 0.444878 -2.88772
LeftToes  1.06246e-005 4.65855e-005 -8.185e-006
354
root  -6.6515 39.3706 -3.4841 1.05231 -72.1328 -5.82942
RightUpLeg  -10.0782 -25.1744 2.91585
RightLeg  25.9163 -7.78716 -1.84712
RightFoot  -12.1733 -0.132157 -6.89733
RightToes  0.00048216 0.542163 -0.142577
Spine  19.2602 4.75517 22.1354
Spine1  9.93962 13.326 -14.646
HEad  14.351 -17.7121 2.14105
LeftShoulder1  9.49189 -14.3414 -46.4008
LeftArm  -22.078 28.9571 -21.8626
LeftForeArm  -10.3468 -49.2764 -13.7828
LeftHand  -0.25398 0.0180481 5.50724
RightShoulder  6.79595 13.0299 35.1276
RightArm  57.1253 29.9461 69.9416
RightForeArm  -41.6899 26.8767 7.54141
RightHand  -0.490301 -1.6799 -15.0957
LeftUpLeg  -19.7847 -2.10104 10.0131
LeftLeg  54.7097 -0.210478 0.126879
LeftFoot  5.54231 0.735502 -5.12148
LeftToes  1.06246e-005 4.65855e-005 -8.185e-006
355
root  -7.94552 39.565 -3.79217 -1.03717 -73.0334 -3.60373
RightUpLeg  -6.60421 -21.543 1.75777
RightLeg  23.8644 -10.7079 -0.617466
RightFoot  -13.252 -0.200956 -6.66766
RightToes  0.00048216 0.542163 -0.142577
Spine  19.0112 4.97944 21.3179
Spine1  9.58382 13.3282 -15.3595
HEad  14.5645 -16.8748 1.3657
LeftShoulder1  9.49404 -14.374 -46.3247
LeftArm  -22.7818 28.5416 -22.0707
LeftForeArm  -9.84835 -49.3181 -13.7701
LeftHand  -0.25398 0.0180481 5.50724
RightShoulder  6.81363 13.0361 35.2175
RightArm  57.1044 30.1388 70.1089
RightForeArm  -41.7189 25.7538 7.26694
RightHand  -0.448121 -1.89761 -14.5838
LeftUpLeg  -21.5308 -1.7891 6.97341
LeftLeg  50.3972 2.27915 3.33672
LeftFoot  3.53876 0.433038 -3.47228
LeftToes  1.06246e-005 4.65855e-005 -8.185e-006
356
root  -9.21488 39.7334 -4.09822 -2.96373 -74.1459 -1.28679
RightUpLeg  -3.73558 -17.6716 1.25539
RightLeg  21.5827 -13.6892 0.3689
RightFoot  -13.9371 -0.24879 -6.81182
RightToes  0.00048216 0.542163 -0.142577
Spine  18.5416 5.48254 20.5253
Spine1  9.41383 13.5994 -16.13
HEad  14.4229 -16.1088 0.580069
LeftShoulder1  9.46465 -14.3352 -46.2805
LeftArm  -23.3844 27.9907 -21.9687
LeftForeArm  -9.06327 -49.606 -13.86
LeftHand  -0.25398 0.0180481 5.50724
RightShoulder  6.8083 13.0396 35.1772
RightArm  55.8823 30.0857 69.9807
RightForeArm  -41.2345 25.8183 7.26976
RightHand  -0.477123 -1.78129 -15.0534
LeftUpLeg  -22.3412 -0.177977 3.98913
LeftLeg  43.0139 4.71128 5.10143
LeftFoot  1.88185 0.305586 -2.75784
LeftToes  1.06246e-005 4.65855e-005 -8.185e-006
357
root  -10.4754 39.8399 -4.37128 -4.34567 -75.5966 0.521912
RightUpLeg  -1.18201 -14.3125 1.42551
RightLeg  19.385 -15.7203 1.09959
RightFoot  -14.6643 -0.308298 -7.20041
RightToes  0.00048216 0.542163 -0.142577
Spine  17.9603 6.1159 20.0449
Spine1  9.4484 14.11 -16.9222
HEad  14.1355 -15.1457 -0.115264
LeftShoulder1  9.42915 -14.2292 -46.3854
LeftArm  -23.6441 27.4492 -21.4818
LeftForeArm  -8.1182 -50.36 -14.1782
LeftHand  -0.25398 0.0180481 5.50724
RightShoulder  6.78395 13.1017 34.881
RightArm  54.462 30.0659 69.8274
RightForeArm  -40.6982 26.5188 7.42548
RightHand  -0.516299 -1.61122 -15.6106
LeftUpLeg  -22.0494 3.09889 1.08813
LeftLeg  32.965 5.03048 3.88632
LeftFoot  1.71943 0.441493 -3.94281
LeftToes  1.06246e-005 4.65855e-005 -8.185e-006
358
root  -11.7565 39.866 -4.60808 -5.91718 -76.9247 2.27377
RightUpLeg  1.68994 -11.8996 1.69842
RightLeg  17.2036 -16.7835 1.81342
RightFoot  -15.6058 -0.37732 -7.30308
RightToes  0.00048216 0.542163 -0.142577
Spine  17.3789 6.57535 19.6013
Spine1  9.73622 14.5235 -17.5371
HEad  13.9912 -13.784 -0.742541
LeftShoulder1  9.39103 -14.1259 -46.471
LeftArm  -23.8606 27.1888 -20.996
LeftForeArm  -7.07748 -51.5706 -14.746
LeftHand  -0.25398 0.0180481 5.50724
RightShoulder  6.76066 13.1898 34.5299
RightArm  53.8799 30.3462 69.8715
RightForeArm  -40.5712 27.1359 7.57438
RightHand  -0.531074 -1.5398 -15.7741
LeftUpLeg  -20.8983 8.12475 -2.26508
LeftLeg  21.9998 2.9114 1.80902
LeftFoot  3.04601 0.663978 -5.38684
LeftToes  1.06246e-005 4.65855e-005 -8.185e-006
359
root  -13.0737 39.7949 -4.82034 -7.84932 -77.9869 4.17523
RightUpLeg  4.56389 -11.0188 1.75677
RightLeg  15.7591 -16.6386 2.35678
RightFoot  -16.8225 -0.439069 -6.80172
RightToes  0.00048216 0.542163 -0.142577
Spine  16.713 6.82412 19.0751
Spine1  10.3072 14.7914 -17.9613
HEad  14.1653 -12.1457 -1.17536
LeftShoulder1  9.3038 -14.0247 -46.3
LeftArm  -24.3128 27.1406 -20.8416
LeftForeArm  -6.08622 -52.8721 -15.4049
LeftHand  -0.25398 0.0180481 5.50724
RightShoulder  6.74365 13.2144 34.3704
RightArm  54.2066 30.9033 70.1539
RightForeArm  -40.9671 27.3392 7.63666
RightHand  -0.535988 -1.49411 -15.7415
LeftUpLeg  -19.2858 12.7213 -5.12935
LeftLeg  12.469 1.34284 -0.291129
LeftFoot  4.43952 1.13854 -8.38737
LeftToes  1.06246e-005 4.65855e-005 -8.185e-006
360
root  -14.4335 39.655 -5.01632 -9.45837 -79.0201 5.69493
RightUpLeg  6.91853 -11.7852 1.64705
RightLeg  15.7896 -14.9325 2.4116
RightFoot  -18.1073 -0.485895 -6.13586
RightToes  0.00048216 0.542163 -0.142577
Spine  15.8709 7.01909 18.5809
Spine1  11.0412 15.0759 -18.3426
HEad  14.6094 -10.4269 -1.29379
LeftShoulder1  9.15318 -13.8964 -45.8732
LeftArm  -24.9581 27.2027 -20.9407
LeftForeArm  -5.20128 -54.0717 -16.0587
LeftHand  -0.25398 0.0180481 5.50724
RightShoulder  6.72236 13.1768 34.3346
RightArm  54.7425 31.4353 70.6212
RightForeArm  -41.5401 27.2662 7.63475
RightHand  -0.542368 -1.43745 -15.7117
LeftUpLeg  -17.0443 9.39191 -4.50381
LeftLeg  5.85032 8.32376 -3.83549
LeftFoot  5.4113 1.50313 -10.4355
LeftToes  1.06246e-005 4.65855e-005 -8.185e-006
361
root  -15.8326 39.5064 -5.21652 -11.7712 -79.9551 7.75327
RightUpLeg  9.12449 -14.519 1.02977
RightLeg  16.9513 -11.1323 1.96808
RightFoot  -19.0941 -0.512046 -5.6543
RightToes  0.00048216 0.542163 -0.142577
Spine  15.1556 7.21196 17.5899
Spine1  11.7886 15.3213 -18.4207
HEad  15.1367 -8.7073 -1.11151
LeftShoulder1  9.01613 -13.7667 -45.5139
LeftArm  -25.5831 27.4613 -20.9182
LeftForeArm  -4.21972 -55.3661 -16.8144
LeftHand  -0.25398 0.0180481 5.50724
RightShoulder  6.71048 13.1555 34.3151
RightArm  54.9351 31.7358 71.0646
RightForeArm  -41.742 27.1987 7.62352
RightHand  -0.530274 -1.48025 -15.5165
LeftUpLeg  -15.4211 5.57691 -4.58922
LeftLeg  3.28205 14.5553 -5.92895
LeftFoot  6.1943 0.831425 -5.66069
LeftToes  1.06246e-005 4.65855e-005 -8.185e-006
362
root  -17.2507 39.3661 -5.44769 -16.6891 -80.517 12.0678
RightUpLeg  11.5058 -20.0706 -1.00105
RightLeg  19.3059 -4.39903 1.18247
RightFoot  -19.6014 -0.431767 -4.2086
RightToes  0.00048216 0.542163 -0.142577
Spine  15.0116 7.40031 15.4537
Spine1  12.3898 15.3456 -17.8585
HEad  15.5864 -7.13233 -0.580619
LeftShoulder1  8.97059 -13.6895 -45.4861
LeftArm  -26.0067 27.6608 -20.5382
LeftForeArm  -3.20748 -56.5609 -17.5497
LeftHand  -0.25398 0.0180481 5.50724
RightShoulder  6.75684 13.1802 34.5305
RightArm  54.8565 31.8996 71.2036
RightForeArm  -41.3411 27.0876 7.58442
RightHand  -0.496316 -1.60459 -14.9673
LeftUpLeg  -15.0459 5.96999 -6.96174
LeftLeg  6.05109 14.4545 -4.16353
LeftFoot  6.2774 -0.7366 4.5601
LeftToes  1.06246e-005 4.65855e-005 -8.185e-006
363
root  -18.6448 39.2622 -5.7081 -22.8428 -80.8331 17.5105
RightUpLeg  12.5986 -25.2907 -3.81502
RightLeg  24.3768 2.39807 0.704716
RightFoot  -18.5063 -0.154374 -0.341099
RightToes  0.00048216 0.542163 -0.142577
Spine  15.4396 7.64762 12.8668
Spine1  12.6007 15.2665 -17.2326
HEad  15.9308 -5.93345 0.335295
LeftShoulder1  8.99757 -13.6984 -45.6033
LeftArm  -26.1518 27.1174 -19.9736
LeftForeArm  -2.83513 -56.7692 -17.6707
LeftHand  -0.25398 0.0180481 5.50724
RightShoulder  6.87814 13.231 35.1232
RightArm  54.7226 32.0803 71.0385
RightForeArm  -40.6661 26.4956 7.41806
RightHand  -0.485489 -1.49851 -14.2622
LeftUpLeg  -15.4314 9.84301 -9.76866
LeftLeg  11.6118 9.58407 -0.295092
LeftFoot  4.9501 -1.66447 11.3581
LeftToes  1.06246e-005 4.65855e-005 -8.185e-006
364
root  -19.9491 39.2829 -5.95986 -27.4243 -81.1746 21.8613
RightUpLeg  9.70596 -23.7615 -4.90291
RightLeg  33.4096 2.8053 1.75776
RightFoot  -12.7248 -0.0528439 4.92504
RightToes  0.00048216 0.542163 -0.142577
Spine  16.142 7.82071 11.1883
Spine1  12.3015 15.3532 -17.5035
HEad  16.2255 -5.04289 1.21301
LeftShoulder1  9.03828 -13.8006 -45.537
LeftArm  -26.0221 25.6593 -19.5383
LeftForeArm  -3.4162 -55.6356 -16.9324
LeftHand  -0.25398 0.0180481 5.50724
RightShoulder  6.9973 13.311 35.6268
RightArm  54.4628 32.2877 70.9217
RightForeArm  -40.2079 25.248 7.10521
RightHand  -0.529232 -0.96501 -13.7594
LeftUpLeg  -15.7454 12.9178 -10.6158
LeftLeg  16.2399 5.84525 2.17443
LeftFoot  2.44266 -1.28673 10.4039
LeftToes  1.06246e-005 4.65855e-005 -8.185e-006
365
root  -21.1062 39.388 -6.17769 -30.498 -81.3912 25.278
RightUpLeg  3.45194 -23.0113 -5.82254
RightLeg  44.8411 3.47254 3.36965
RightFoot  -0.99784 -0.758075 8.42591
RightToes  0.00048216 0.542163 -0.142577
Spine  17.0887 7.74691 10.3432
Spine1  11.6592 15.4557 -18.5715
HEad  16.4092 -4.02901 1.28988
LeftShoulder1  9.09425 -13.9613 -45.3921
LeftArm  -25.6442 23.9556 -19.2933
LeftForeArm  -4.14487 -54.191 -16.0472
LeftHand  -0.25398 0.0180481 5.50724
RightShoulder  7.00995 13.4146 35.4497
RightArm  53.7641 32.5816 71.0232
RightForeArm  -39.7598 23.9263 6.88446
RightHand  -0.581333 -0.37256 -13.4109
LeftUpLeg  -15.3133 13.6556 -9.83704
LeftLeg  18.5842 5.46802 2.40427
LeftFoot  -0.117532 -0.714533 7.3116
LeftToes  1.06246e-005 4.65855e-005 -8.185e-006
366
root  -22.1056 39.4427 -6.39351 -33.841 -80.9306 29.0663
RightUpLeg  -3.93503 -22.3974 -6.79713
RightLeg  54.9149 2.88229 3.94421
RightFoot  10.142 -1.64243 9.09522
RightToes  0.00048216 0.542163 -0.142577
Spine  18.4488 7.46706 8.97437
Spine1  11.112 15.1645 -19.3454
HEad  16.2129 -2.69813 0.340254
LeftShoulder1  9.20048 -14.1234 -45.504
LeftArm  -25.0125 22.4204 -19.1577
LeftForeArm  -4.28076 -53.5472 -15.6653
LeftHand  -0.25398 0.0180481 5.50724
RightShoulder  6.90901 13.4668 34.738
RightArm  52.4042 33.1798 70.9423
RightForeArm  -38.6844 23.3549 6.94393
RightHand  -0.572738 -0.244374 -12.8954
LeftUpLeg  -14.4811 14.9859 -9.86545
LeftLeg  19.4331 4.366 2.03367
LeftFoot  -2.08863 -0.535956 6.80087
LeftToes  1.06246e-005 4.65855e-005 -8.185e-006
